<?xml version="1.0" encoding="UTF-8"?>
<svg id="Layer_1" data-name="Layer 1" xmlns="http://www.w3.org/2000/svg" viewBox="0 0 134.09 135.36">
  <defs>
    <style>
      .cls-1 {
        fill: #1d2b58;
      }

      .cls-2 {
        fill: #009ea9;
      }
    </style>
  </defs>
  <path class="cls-2" d="M12.78,133.62c-.36-.64-6.05-10.82-5.77-18.29.06-1.69.14-3.62,1.09-5.85.66-1.54,1.31-2.25,2.73-4.81.9-1.64,1.55-3.01,1.96-3.91,17.71-30.2,35.41-60.39,53.12-90.59,4.49-7.76,12.82-11.59,19.86-9.68,6.15,1.66,10.11,7.37,11.45,11.84.51,1.71.58,4.79.68,10.86.07,4.22.07,7.7.05,10.08-5.32,0-10.64,0-15.97-.01-.2-5.57-.41-11.14-.61-16.72C58.5,55.56,35.64,94.59,12.78,133.62Z"/>
  <path class="cls-1" d="M0,39.45c.15,2.32.85,8.35,5.54,12.98,1.21,1.19,2.47,2.08,3.62,2.74,7.9.08,15.8.16,23.7.24,1.7-2.46,3.46-5.26,5.16-8.41,1.43-2.65,2.63-5.19,3.64-7.56-13.89,0-27.77,0-41.66,0Z"/>
  <path class="cls-1" d="M74.67,39.44l-8.74,15.97c17.04.01,34.09.02,51.13.04-.29.45-.75,1.1-1.4,1.83-.8.9-2.17,2.25-6.28,4.53-1.31.73-3.08,1.65-5.23,2.61-.04,6.2-.09,12.39-.13,18.59,8.08-4.79,16.15-9.57,24.23-14.36.62-.56,6.72-6.27,5.74-14.81-.75-6.54-5.35-12.15-11.79-14.39-7.58.04-15.2.06-22.84.06-8.27,0-16.49-.02-24.68-.06Z"/>
  <polygon class="cls-1" points="75.16 81.91 75.16 100.6 20.28 133.62 36.12 105.78 75.16 81.91"/>
  <path class="cls-2" d="M81.78,61.22h16.18v74.13c-1.04-.04-10.95-.54-14.81-7.73-.57-1.05-1.14-2.51-1.37-4.4v-62Z"/>
</svg>